# xmcd
#
# Track frame offsets:
#	150
#	18855
#	35030
#	50765
#	66577
#	81102
#	96525
#	113585
#	128885
#	142412
#	158100
#	176255
#
# Disc length: 2589 seconds
#
# Revision: 1
# Processed by: cddbd v1.5.2PL0 Copyright (c) Steve Scherf et al.
# Submitted via: EasyCDDAExtractor 15.3.0.1
#
DISCID=ac0a1b0c
DTITLE=Pandora - Locas Por La Musica
DYEAR=1991
DGENRE=Latin
TTITLE0=Como Te Va Mi Amor
TTITLE1=Alguien Llena Mi Lugar
TTITLE2=Como Una Mariposa
TTITLE3=Ni Tu Ni Yo
TTITLE4=De Mil Maneras
TTITLE5=Solo Le Pido A Dios
TTITLE6=Solo El Y Yo
TTITLE7=Mi Hombre
TTITLE8=Cuando No Estas Conmigo
TTITLE9=Atrapada
TTITLE10=No Puedo Dejar De Pensar En Ti
TTITLE11=Tarde O Temprano
EXTD=
EXTT0=
EXTT1=
EXTT2=
EXTT3=
EXTT4=
EXTT5=
EXTT6=
EXTT7=
EXTT8=
EXTT9=
EXTT10=
EXTT11=
PLAYORDER=
